<svg xmlns="http://www.w3.org/2000/svg" xmlns:xlink="http://www.w3.org/1999/xlink" id="Layer_1" x="0" y="0" version="1.1" viewBox="0 0 682.5 768" xml:space="preserve" style="enable-background:new 0 0 682.5 768"><style type="text/css">.st0{fill:none}.st1{fill:#67ba7d}.st2{fill:#3d98d3}.st3{fill:#fff}.st4{fill:#93dd8f}.st5{fill:url(#New_Pattern_Swatch_2)}.st6{fill:#0d8e84}.st7{fill:#54bfee}.st8{fill:#2c3e50}.st9{fill:#2e729d}.st10{fill:#065667}</style><pattern id="New_Pattern_Swatch_2" width="146" height="146" y="768" patternUnits="userSpaceOnUse" viewBox="0 -146 146 146" style="overflow:visible"><g><rect width="146" height="146" y="-146" class="st0"/><g><polygon points="0 -86.189 0 -71.851 74.149 -146 59.81 -146 54.239 -140.43 54.24 -140.429 5.572 -91.761" class="st1"/><polygon points="84.143 -146 78.572 -140.43 78.573 -140.429 5.572 -67.428 0 -61.855 0 -47.518 98.482 -146" class="st1"/><polygon points="146 -13.19 132.81 0 146 0" class="st1"/><polygon points="108.476 -146 102.906 -140.43 102.907 -140.429 5.572 -43.094 0 -37.522 0 -23.185 122.815 -146" class="st1"/><polygon points="0 -110.522 0 -96.185 49.815 -146 35.476 -146 29.906 -140.43 29.907 -140.429 5.572 -116.094" class="st1"/><polygon points="0 -134.855 0 -120.518 25.482 -146 11.143 -146 5.572 -140.43 5.573 -140.429 5.572 -140.428" class="st1"/><polygon points="12.74 -11.593 144.546 -143.398 146 -144.851 146 -146 132.809 -146 127.239 -140.431 127.24 -140.43 127.239 -140.43 127.24 -140.429 0 -13.19 0 0 1.148 0 12.741 -11.592" class="st1"/><polygon points="146 -23.185 146 -37.522 108.476 0 122.815 0 134.408 -11.592" class="st1"/><polygon points="11.143 0 25.482 0 37.074 -11.592 37.073 -11.593 134.407 -108.926 134.408 -108.926 146 -120.518 146 -134.855" class="st1"/><polygon points="134.408 -35.926 146 -47.518 146 -61.855 84.143 0 98.482 0 110.074 -11.592 110.074 -11.593 134.407 -35.926" class="st1"/><polygon points="59.81 0 74.149 0 85.741 -11.592 85.74 -11.593 134.407 -60.259 134.408 -60.259 146 -71.851 146 -86.189" class="st1"/><polygon points="35.476 0 49.815 0 61.408 -11.592 61.407 -11.593 134.407 -84.593 134.408 -84.592 146 -96.185 146 -110.522" class="st1"/></g></g></pattern><g><rect width="685" height="768" y=".997" class="st2"/><path d="M685,179.9765625c-10.2684326-7.9534912-23.1462402-12.6995239-37.1398926-12.6995239 c-7.3413086,0-14.3781738,1.3031616-20.892334,3.6902466c-9.7324219-42.9186401-48.0844727-74.9703445-93.9477539-74.9703445 c-45.5672607,0-83.7202148,31.6395264-93.7562256,74.1409988c-5.8175049-1.8529663-12.012085-2.8609009-18.4437256-2.8609009 c-25.1612549,0-46.7474365,15.3044434-55.9589844,37.1118774c-5.6607666-2.6327515-11.9667969-4.1118774-18.6210938-4.1118774 c-18.5873413,0-34.4851685,11.4734497-41.0258789,27.7200317H685V179.9765625z" class="st3"/><rect width="413.512" height="318" x="268" y="400.997" class="st4"/><rect width="681.512" height="308" y="400.997" class="st5"/><g><rect width="546.291" height="179.789" y="539.209" class="st6"/><rect width="546.291" height="22.474" y="561.682" class="st1"/><rect width="546.291" height="22.474" y="606.629" class="st1"/><rect width="546.291" height="22.474" y="651.576" class="st1"/><rect width="546.291" height="22.474" y="696.523" class="st1"/></g><g><g><polygon points="179 539.997 0 539.997 0 400.997 30 360.997 90 330.997 149 360.997 179 400.997" class="st3"/><polygon points="268 539.997 89 539.997 89 400.997 119 360.997 179 330.997 238 360.997 268 400.997" class="st7"/><rect width="89" height="139" y="400.997" class="st3"/><polygon points="30 360.997 119 360.997 179 330.997 89 330.997" class="st8"/><polygon points="89 400.997 119 360.997 30 360.997 0 400.997" class="st9"/><rect width="84" height="76.699" x="136.5" y="459.647" class="st3" transform="matrix(-1.836970e-16 1 -1 -1.836970e-16 676.4970703 319.4970703)"/><rect width="56.699" height="64" x="150.151" y="465.997" class="st8"/><rect width="4.999" height="69.331" x="160.831" y="463.331" class="st3" transform="matrix(0.9231052 -0.3845474 0.3845474 0.9231052 -178.9441986 101.1016998)"/><rect width="69.331" height="4.999" x="128.665" y="495.497" class="st3" transform="matrix(0.3844212 -0.9231578 0.9231578 0.3844212 -359.1870422 457.3363342)"/><rect width="4.999" height="69.331" x="191.17" y="463.331" class="st3" transform="matrix(0.9231052 -0.3845474 0.3845474 0.9231052 -176.6112976 112.768425)"/><rect width="69.331" height="4.999" x="159.004" y="495.497" class="st3" transform="matrix(0.3844212 -0.9231578 0.9231578 0.3844212 -340.5110779 485.3439026)"/><rect width="5" height="64" x="176" y="465.997" class="st3"/></g><circle cx="178" cy="410.997" r="22" class="st8"/></g><g><polygon points="620.568 619.227 620.102 619.592 620.102 595.036 548.923 539.209 507.743 595.036 507.743 619.592 507.278 619.227 445.403 665.75 445.403 718.786 507.743 718.786 548.458 718.786 549.388 718.786 620.102 718.786 682.443 718.786 682.443 665.75" class="st9"/><polygon points="422.142 718.786 279.783 718.786 279.783 595.036 350.962 539.209 422.142 595.036" class="st3"/><polygon points="350.497 718.786 217.443 718.786 217.443 665.75 279.318 619.227 350.497 675.054" class="st3"/><polygon points="484.482 718.786 351.428 718.786 351.428 675.054 422.607 619.227 484.482 665.75" class="st3"/><rect width="52.756" height="59.549" x="324.585" y="659.237" class="st9"/><rect width="52.756" height="52.077" x="324.585" y="584.103" class="st9"/><polygon points="351.428 539.209 549.388 539.209 620.102 595.036 422.142 595.036" class="st8"/><polygon points="422.142 619.227 620.102 619.227 681.512 665.75 483.552 665.75" class="st8"/><rect width="197.961" height="24.192" x="422.142" y="595.036" class="st9"/></g><g><path d="M616,249.9970703c0-22.0914001-17.9086304-40-40-40s-40,17.9085999-40,40v152h80V249.9970703z" class="st3"/><g><path d="M536,249.9970703h40v-40C553.9086914,209.9970703,536,227.9056396,536,249.9970703z" class="st9"/><rect width="40" height="152" x="576" y="249.997" class="st9"/><path d="M576,209.9970703v40h40C616,227.9056396,598.0913086,209.9970703,576,209.9970703z" class="st8"/></g></g><g><path d="M491.5,260.9970703c0,0-0.1784668,0.1082764-0.5,0.3077393v-0.3077393H364v0.3077393 c-5.9019165,3.6606445-63,39.9343872-63,73.1922607v67.5h63h64h63h64v-67.5C555,299.427002,491.5,260.9970703,491.5,260.9970703z" class="st8"/><path d="M428,334.4970703c0-35.0700989-63.5-73.5-63.5-73.5s-63.5,38.4299011-63.5,73.5v67.5h127V334.4970703z" class="st3"/><path d="M341,401.9970703V355.762207c1.1699219-2.9399414,6.65625-11.5639648,21.5361328-24.0244141 c0.6582031-0.5512695,1.3125-1.0917969,1.9638672-1.6225586c0.8955078,0.7299805,1.7988281,1.4794922,2.7050781,2.246582 c14.3378906,12.137207,19.6494141,20.527832,20.7949219,23.4013672v46.2338867H341z" class="st9"/><rect width="127" height="67" x="428" y="334.997" class="st9"/><g><path d="M470,369.1862488c0-6.3671265-11.5286865-13.3442383-11.5286865-13.3442383 s-11.528717,6.9771118-11.528717,13.3442383v12.2549133H470V369.1862488z" class="st8"/><path d="M503,369.1862488c0-6.3671265-11.5286865-13.3442383-11.5286865-13.3442383 s-11.528717,6.9771118-11.528717,13.3442383v12.2549133H503V369.1862488z" class="st8"/><path d="M536,369.1862488c0-6.3671265-11.5286865-13.3442383-11.5286865-13.3442383 s-11.5286865,6.9771118-11.5286865,13.3442383v12.2549133H536V369.1862488z" class="st8"/></g></g><rect width="681.512" height="50" y="718.997" class="st10"/><path d="M89,643.9970703c0,16.5685425-13.4314575,30-30,30s-30-13.4314575-30-30v-30 c0-16.5685425,13.4314575-30,30-30s30,13.4314575,30,30V643.9970703z" class="st10"/><rect width="15" height="63.333" x="51" y="663.33" class="st10"/><circle cx="108.5" cy="683.397" r="25.5" class="st10"/><rect width="12.75" height="53.833" x="101.7" y="699.83" class="st10"/><path d="M0,132.6793671h184.1125336c-5.2861938-13.1304398-18.1348114-22.4032822-33.157074-22.4032822 c-5.378067,0-10.4745178,1.1954269-15.0496063,3.3232117c-7.4447021-17.6247177-24.890625-29.9937897-45.2258911-29.9937897 c-5.1980972,0-10.2044907,0.8146439-14.9062271,2.3121948C67.66259,51.5680656,36.8274689,25.9970665,0,25.9970665" class="st3"/></g></svg>