<svg xmlns="http://www.w3.org/2000/svg" xmlns:xlink="http://www.w3.org/1999/xlink" id="Layer_1" x="0" y="0" version="1.1" viewBox="0 0 44.499 50" xml:space="preserve" style="enable-background:new 0 0 44.4991302 50"><style type="text/css">.st0{fill-rule:evenodd;clip-rule:evenodd;fill:#000}.st1{filter:url(#Adobe_OpacityMaskFilter)}.st3{filter:url(#Adobe_OpacityMaskFilter_1_)}</style><desc>Created with Sketch.</desc><g id="icon-_x2F_-product-logo-_x2F_-32x32px-_x2F_-elasticsearch-_x2F_-white"><g id="Group-9" transform="translate(1.000000, 0.000000)"><path id="Fill-1" d="M-1,25.0003128c0,2.1624718,0.3031212,4.2483845,0.8187398,6.2499237H30.249609 c3.4515209,0,6.2499218-2.7984047,6.2499218-6.2499237s-2.7984009-6.2499218-6.2499218-6.2499218H-0.1812602 C-0.6968788,20.7519283-1,22.8378391-1,25.0003128" class="st0"/><g id="Group-5" transform="translate(1.000000, 0.000000)"><defs><filter id="Adobe_OpacityMaskFilter" width="41.931" height="14.062" x=".568" y="0" filterUnits="userSpaceOnUse"><feColorMatrix type="matrix" values="1 0 0 0 0 0 1 0 0 0 0 0 1 0 0 0 0 0 1 0"/></filter></defs><mask id="mask-2_1_" width="41.931" height="14.062" x=".568" y="0" maskUnits="userSpaceOnUse"><g class="st1"><polygon id="path-1_1_" points=".568 .001 42.498 .001 42.498 14.062 .568 14.062" class="st0"/></g></mask><path id="Fill-3" d="M40.0679092,11.9717255c0.8734283-0.804677,1.6859207-1.6687288,2.431221-2.5968428 C37.916378,3.6655791,30.8899021,0,22.9993744,0C13.1229353,0,4.6230421,5.7468033,0.5684054,14.0623245h34.1667595 C36.7132683,14.0623245,38.6148033,13.3123331,40.0679092,11.9717255"/></g><g id="Group-8" transform="translate(1.000000, 23.000000)"><defs><filter id="Adobe_OpacityMaskFilter_1_" width="41.931" height="14.062" x=".568" y="12.938" filterUnits="userSpaceOnUse"><feColorMatrix type="matrix" values="1 0 0 0 0 0 1 0 0 0 0 0 1 0 0 0 0 0 1 0"/></filter></defs><mask id="mask-4_1_" width="41.931" height="14.062" x=".568" y="12.938" maskUnits="userSpaceOnUse"><g class="st3"><polygon id="path-3_1_" points=".568 12.938 42.498 12.938 42.498 27 .568 27" class="st0"/></g></mask><path id="Fill-6" d="M34.7350082,12.9376755H0.5682492C4.6244488,21.2547588,13.1227808,27,22.999218,27 c7.8905277,0,14.9169998-3.6640167,19.4997559-9.3748817c-0.7453003-0.9265518-1.5577927-1.7921658-2.4312172-2.5968437 C38.6146469,13.6876669,36.7131081,12.9376755,34.7350082,12.9376755"/></g></g></g></svg>