<svg xmlns="http://www.w3.org/2000/svg" xmlns:xlink="http://www.w3.org/1999/xlink" id="Layer_1" x="0" y="0" version="1.1" viewBox="0 0 60.711 50" xml:space="preserve" style="enable-background:new 0 0 60.7108955 50"><style type="text/css">.st0{fill:#fff}.st1{fill:url(#SVGID_1_)}.st2{fill:url(#SVGID_2_)}.st3{fill:url(#SVGID_3_)}.st4{fill:url(#SVGID_4_)}.st5{fill:url(#SVGID_5_)}.st6{fill:url(#SVGID_6_)}.st7{fill:url(#SVGID_7_)}.st8{fill:url(#SVGID_8_)}.st9{fill:url(#SVGID_9_)}.st10{fill:url(#SVGID_10_)}.st11{fill:url(#SVGID_11_)}.st12{fill:url(#SVGID_12_)}.st13{fill:url(#SVGID_13_)}.st14{fill:url(#SVGID_14_)}.st15{fill:url(#SVGID_15_)}.st16{fill:url(#SVGID_16_)}.st17{fill:url(#SVGID_17_)}.st18{fill:url(#SVGID_18_)}.st19{fill:url(#SVGID_19_)}.st20{fill:url(#SVGID_20_)}.st21{fill:url(#SVGID_21_)}.st22{fill:url(#SVGID_22_)}.st23{fill:url(#SVGID_23_)}.st24{fill:url(#SVGID_24_)}.st25{fill:url(#SVGID_25_)}.st26{fill:url(#SVGID_26_)}.st27{fill:url(#SVGID_27_)}.st28{fill:url(#SVGID_28_)}</style><g transform="translate(-657.1 -27.496)"><circle cx="709.194" cy="45.205" r="1.264" class="st0"/><linearGradient id="SVGID_1_" x1="2316.667" x2="2396.945" y1="1107.307" y2="1107.307" gradientTransform="matrix(0.8 0 0 -0.8 -1198.6984863 927.8982544)" gradientUnits="userSpaceOnUse"><stop offset="0" style="stop-color:#fff;stop-opacity:.75"/><stop offset=".32" style="stop-color:#fff;stop-opacity:.57"/><stop offset=".68" style="stop-color:#fff;stop-opacity:.55"/><stop offset=".9" style="stop-color:#fff;stop-opacity:.45"/></linearGradient><path d="M679.0238037,37.4900208c-2.0256958-1.5516243-4.0945435-3.1607132-6.1202393-4.6117668 c-0.4741211-0.3304367-0.9482422-0.6608734-1.3648682-0.991312c-5.4594116-3.7641182-10.5452881-6.120285-13.3612061-2.8159065 c-2.1693726,2.5429363-0.991333,8.4189854,3.4337158,15.5305805l0.1436768,0.2298737 c2.298645,3.6204491,9.0367432,12.1399994,24.998291,11.7664604c1.0344238-1.1349792,2.6435547-3.2469139,4.7123413-5.5456123 C688.118042,45.5929298,683.0752563,40.8374977,679.0238037,37.4900208L679.0238037,37.4900208z" class="st1"/><linearGradient id="SVGID_2_" x1="2319.738" x2="2396.192" y1="1092.591" y2="1092.591" gradientTransform="matrix(0.8 0 0 -0.8 -1198.6984863 927.8982544)" gradientUnits="userSpaceOnUse"><stop offset="0" style="stop-color:#fff;stop-opacity:.4"/><stop offset=".67" style="stop-color:#fff;stop-opacity:.5"/></linearGradient><path d="M691.4511719,51.0523376c-2.0688477,2.2986984-3.6779175,4.4249954-4.7123413,5.5456123 c2.399292-0.0430984,4.7985229-0.2298698,7.1547241-0.6034088c-0.2299194-0.7039757-0.5172119-1.3648529-0.8476562-2.0257301 C692.5861206,52.9774971,692.0258179,51.9861832,691.4511719,51.0523376L691.4511719,51.0523376z" class="st2"/><linearGradient id="SVGID_3_" x1="2347.143" x2="2396.628" y1="1104.498" y2="1104.498" gradientTransform="matrix(0.8 0 0 -0.8 -1198.6984863 927.8982544)" gradientUnits="userSpaceOnUse"><stop offset="0" style="stop-color:#fff;stop-opacity:.38"/><stop offset=".97" style="stop-color:#fff;stop-opacity:.5"/></linearGradient><path d="M703.4044189,42.3029175c-4.3244629,1.3217545-8.6201172,3.5342522-14.1226807,1.7814903 c-2.7727661-0.847641-6.4075928-3.5773468-10.3153687-6.5369225c4.0945435,3.2900124,9.1373291,8.0454445,12.4703979,13.5048523 C694.5112915,47.61866,698.605835,43.854538,703.4044189,42.3029175z" class="st3"/><linearGradient id="SVGID_4_" x1="2375.5" x2="2375.5" y1="1116.573" y2="1062.216" gradientTransform="matrix(0.8 0 0 -0.8 -1198.6984863 927.8982544)" gradientUnits="userSpaceOnUse"><stop offset="0" style="stop-color:#4faac4"/><stop offset="0" style="stop-color:#fff;stop-opacity:.35"/><stop offset=".964" style="stop-color:#fff;stop-opacity:.38"/><stop offset="1" style="stop-color:#fff;stop-opacity:.26"/></linearGradient><path d="M693.8935547,55.9945412c0.1867676,0.5172081,0.3735352,1.0344162,0.5171509,1.5516205 c0.3304443,1.2642822,0.5603638,2.5429344,0.6608887,3.8646851c0.0430908,0.5603065,0.0430908,1.1349792,0.0430908,1.6952896 c-0.0861816,3.6204491-1.7384033,5.6892815-2.1693726,6.0628166c5.8760376-5.5025063,8.5195312-12.1399994,14.2662964-17.1684036 c0.991333-0.8476448,2.0688477-1.5516205,3.2468872-2.0688286c-3.7497559,1.5947227-7.8586426,4.741066-16.5650024,6.0628204 H693.8935547z" class="st4"/><linearGradient id="SVGID_5_" x1="2311.488" x2="2367.776" y1="1265.775" y2="1265.775" gradientTransform="matrix(0.8 0 0 0.8 -1198.6984863 -952.3873291)" gradientUnits="userSpaceOnUse"><stop offset="0" style="stop-color:#fff;stop-opacity:.6"/><stop offset=".93" style="stop-color:#fff;stop-opacity:.47"/></linearGradient><path d="M661.7548218,44.8889542c4.381897,6.867363,11.2061768,12.3267708,9.8843994,19.955574 c-1.6952515,9.8413086-14.5392456,10.732048-14.5392456,10.732048h0.2873535c1.2642822,0,6.9678955-0.4310074,15.5736694-6.2639542 c7.3845825-5.0284042,11.8670044-10.6314812,13.7921753-12.7003098c-1.7814941,0.0430984-3.4336548-0.0430984-4.9852905-0.1867676 C669.383667,55.1468964,663.8236694,48.0783958,661.7548218,44.8889542L661.7548218,44.8889542z" class="st5"/><linearGradient id="SVGID_6_" x1="2319.748" x2="2396.202" y1="1076.441" y2="1076.441" gradientTransform="matrix(0.8 0 0 -0.8 -1198.6984863 927.8982544)" gradientUnits="userSpaceOnUse"><stop offset="0" style="stop-color:#fff;stop-opacity:.38"/><stop offset=".98" style="stop-color:#fff;stop-opacity:.5"/></linearGradient><path d="M695.0715942,63.1061401c0.0430908-2.3992691-0.3735352-4.855999-1.2211914-7.111599 c-0.3735352,0.0430984-0.7039795,0.0862007-1.0775146,0.1436691c-2.0256958,0.2298698-4.0514526,0.4310036-6.0628052,0.4310036 c-1.982605,2.0688286-6.4075928,7.6719055-13.7921753,12.7003098c-9.7982178,6.7236938-15.8179321,6.3070526-15.8179321,6.3070526 s14.3956299,4.4680939,26.0758667-0.2298737c3.6204834-1.4079514,6.9679565-3.5342484,9.7982178-6.1633835 C693.3763428,68.7379456,695.0285034,66.7265854,695.0715942,63.1061401z" class="st6"/><linearGradient id="SVGID_7_" x1="2379.171" x2="2379.171" y1="1269.107" y2="1241.765" gradientTransform="matrix(0.8 0 0 0.8 -1198.6984863 -952.3873291)" gradientUnits="userSpaceOnUse"><stop offset="0" style="stop-color:#fff;stop-opacity:.3"/><stop offset="1" style="stop-color:#fff;stop-opacity:.35"/></linearGradient><path d="M716.6793823,47.4175224c-0.6608887-0.3304367-1.2642822-0.7470741-1.7814941-1.2211838 c-0.5172119-0.5172043-1.0775146-1.8820572-1.3217773-2.2555962c-0.7039795-1.1780815-1.7383423-2.126297-3.9077759-2.3992653 c-2.1693726-0.2873383-4.1951294,0.1436691-6.2064819,0.7470779c-4.8560181,1.5516205-8.9361572,5.3157387-11.9963379,8.7494202 c0.6034546,0.9482155,1.1350098,1.9251595,1.5947266,2.9164734c0.3304443,0.6608772,0.6033936,1.3648567,0.8476562,2.0257301 c8.7062988-1.3217545,12.8008423-4.4680977,16.5650024-6.0628204c1.882019-0.8045425,3.9077759-1.1780815,5.9335327-1.1349792 h1.0775146c0.7901611,0.0574646,0-0.8907471-0.8045654-1.3648529V47.4175224z" class="st7"/><linearGradient id="SVGID_8_" x1="2316.667" x2="2396.945" y1="1107.307" y2="1107.307" gradientTransform="matrix(0.8 0 0 -0.8 -1198.6984863 927.8982544)" gradientUnits="userSpaceOnUse"><stop offset="0" style="stop-color:#fff;stop-opacity:.75"/><stop offset=".32" style="stop-color:#fff;stop-opacity:.57"/><stop offset=".68" style="stop-color:#fff;stop-opacity:.55"/><stop offset=".9" style="stop-color:#fff;stop-opacity:.45"/></linearGradient><path d="M679.0238037,37.4900208c-2.0256958-1.5516243-4.0945435-3.1607132-6.1202393-4.6117668 c-0.4741211-0.3304367-0.9482422-0.6608734-1.3648682-0.991312c-5.4594116-3.7641182-10.5452881-6.120285-13.3612061-2.8159065 c-2.1693726,2.5429363-0.991333,8.4189854,3.4337158,15.5305805l0.1436768,0.2298737 c2.298645,3.6204491,9.0367432,12.1399994,24.998291,11.7664604c1.0344238-1.1349792,2.6435547-3.2469139,4.7123413-5.5456123 C688.118042,45.5929298,683.0752563,40.8374977,679.0238037,37.4900208L679.0238037,37.4900208z" class="st8"/><linearGradient id="SVGID_9_" x1="2319.738" x2="2396.192" y1="1092.591" y2="1092.591" gradientTransform="matrix(0.8 0 0 -0.8 -1198.6984863 927.8982544)" gradientUnits="userSpaceOnUse"><stop offset="0" style="stop-color:#fff;stop-opacity:.4"/><stop offset=".67" style="stop-color:#fff;stop-opacity:.5"/></linearGradient><path d="M691.4511719,51.0523376c-2.0688477,2.2986984-3.6779175,4.4249954-4.7123413,5.5456123 c2.399292-0.0430984,4.7985229-0.2298698,7.1547241-0.6034088c-0.2299194-0.7039757-0.5172119-1.3648529-0.8476562-2.0257301 C692.5861206,52.9774971,692.0258179,51.9861832,691.4511719,51.0523376L691.4511719,51.0523376z" class="st9"/><linearGradient id="SVGID_10_" x1="2347.143" x2="2396.628" y1="1104.498" y2="1104.498" gradientTransform="matrix(0.8 0 0 -0.8 -1198.6984863 927.8982544)" gradientUnits="userSpaceOnUse"><stop offset="0" style="stop-color:#fff;stop-opacity:.38"/><stop offset=".97" style="stop-color:#fff;stop-opacity:.5"/></linearGradient><path d="M703.4044189,42.3029175c-4.3244629,1.3217545-8.6201172,3.5342522-14.1226807,1.7814903 c-2.7727661-0.847641-6.4075928-3.5773468-10.3153687-6.5369225c4.0945435,3.2900124,9.1373291,8.0454445,12.4703979,13.5048523 C694.5112915,47.61866,698.605835,43.854538,703.4044189,42.3029175z" class="st10"/><linearGradient id="SVGID_11_" x1="2375.5" x2="2375.5" y1="1116.573" y2="1062.216" gradientTransform="matrix(0.8 0 0 -0.8 -1198.6984863 927.8982544)" gradientUnits="userSpaceOnUse"><stop offset="0" style="stop-color:#4faac4"/><stop offset="0" style="stop-color:#fff;stop-opacity:.35"/><stop offset=".964" style="stop-color:#fff;stop-opacity:.38"/><stop offset="1" style="stop-color:#fff;stop-opacity:.26"/></linearGradient><path d="M693.8935547,55.9945412c0.1867676,0.5172081,0.3735352,1.0344162,0.5171509,1.5516205 c0.3304443,1.2642822,0.5603638,2.5429344,0.6608887,3.8646851c0.0430908,0.5603065,0.0430908,1.1349792,0.0430908,1.6952896 c-0.0861816,3.6204491-1.7384033,5.6892815-2.1693726,6.0628166c5.8760376-5.5025063,8.5195312-12.1399994,14.2662964-17.1684036 c0.991333-0.8476448,2.0688477-1.5516205,3.2468872-2.0688286c-3.7497559,1.5947227-7.8586426,4.741066-16.5650024,6.0628204 H693.8935547z" class="st11"/><linearGradient id="SVGID_12_" x1="2311.488" x2="2367.776" y1="1265.775" y2="1265.775" gradientTransform="matrix(0.8 0 0 0.8 -1198.6984863 -952.3873291)" gradientUnits="userSpaceOnUse"><stop offset="0" style="stop-color:#fff;stop-opacity:.6"/><stop offset=".93" style="stop-color:#fff;stop-opacity:.47"/></linearGradient><path d="M661.7548218,44.8889542c4.381897,6.867363,11.2061768,12.3267708,9.8843994,19.955574 c-1.6952515,9.8413086-14.5392456,10.732048-14.5392456,10.732048h0.2873535c1.2642822,0,6.9678955-0.4310074,15.5736694-6.2639542 c7.3845825-5.0284042,11.8670044-10.6314812,13.7921753-12.7003098c-1.7814941,0.0430984-3.4336548-0.0430984-4.9852905-0.1867676 C669.383667,55.1468964,663.8236694,48.0783958,661.7548218,44.8889542L661.7548218,44.8889542z" class="st12"/><linearGradient id="SVGID_13_" x1="2319.748" x2="2396.202" y1="1076.441" y2="1076.441" gradientTransform="matrix(0.8 0 0 -0.8 -1198.6984863 927.8982544)" gradientUnits="userSpaceOnUse"><stop offset="0" style="stop-color:#fff;stop-opacity:.38"/><stop offset=".98" style="stop-color:#fff;stop-opacity:.5"/></linearGradient><path d="M695.0715942,63.1061401c0.0430908-2.3992691-0.3735352-4.855999-1.2211914-7.111599 c-0.3735352,0.0430984-0.7039795,0.0862007-1.0775146,0.1436691c-2.0256958,0.2298698-4.0514526,0.4310036-6.0628052,0.4310036 c-1.982605,2.0688286-6.4075928,7.6719055-13.7921753,12.7003098c-9.7982178,6.7236938-15.8179321,6.3070526-15.8179321,6.3070526 s14.3956299,4.4680939,26.0758667-0.2298737c3.6204834-1.4079514,6.9679565-3.5342484,9.7982178-6.1633835 C693.3763428,68.7379456,695.0285034,66.7265854,695.0715942,63.1061401z" class="st13"/><linearGradient id="SVGID_14_" x1="2379.171" x2="2379.171" y1="1269.107" y2="1241.765" gradientTransform="matrix(0.8 0 0 0.8 -1198.6984863 -952.3873291)" gradientUnits="userSpaceOnUse"><stop offset="0" style="stop-color:#fff;stop-opacity:.3"/><stop offset="1" style="stop-color:#fff;stop-opacity:.35"/></linearGradient><path d="M716.6793823,47.4175224c-0.6608887-0.3304367-1.2642822-0.7470741-1.7814941-1.2211838 c-0.5172119-0.5172043-1.0775146-1.8820572-1.3217773-2.2555962c-0.7039795-1.1780815-1.7383423-2.126297-3.9077759-2.3992653 c-2.1693726-0.2873383-4.1951294,0.1436691-6.2064819,0.7470779c-4.8560181,1.5516205-8.9361572,5.3157387-11.9963379,8.7494202 c0.6034546,0.9482155,1.1350098,1.9251595,1.5947266,2.9164734c0.3304443,0.6608772,0.6033936,1.3648567,0.8476562,2.0257301 c8.7062988-1.3217545,12.8008423-4.4680977,16.5650024-6.0628204c1.882019-0.8045425,3.9077759-1.1780815,5.9335327-1.1349792 h1.0775146c0.7901611,0.0574646,0-0.8907471-0.8045654-1.3648529V47.4175224z" class="st14"/><linearGradient id="SVGID_15_" x1="2316.667" x2="2396.945" y1="1107.307" y2="1107.307" gradientTransform="matrix(0.8 0 0 -0.8 -1198.6984863 927.8982544)" gradientUnits="userSpaceOnUse"><stop offset="0" style="stop-color:#fff;stop-opacity:.75"/><stop offset=".32" style="stop-color:#fff;stop-opacity:.57"/><stop offset=".68" style="stop-color:#fff;stop-opacity:.55"/><stop offset=".9" style="stop-color:#fff;stop-opacity:.45"/></linearGradient><path d="M679.0238037,37.4900208c-2.0256958-1.5516243-4.0945435-3.1607132-6.1202393-4.6117668 c-0.4741211-0.3304367-0.9482422-0.6608734-1.3648682-0.991312c-5.4594116-3.7641182-10.5452881-6.120285-13.3612061-2.8159065 c-2.1693726,2.5429363-0.991333,8.4189854,3.4337158,15.5305805l0.1436768,0.2298737 c2.298645,3.6204491,9.0367432,12.1399994,24.998291,11.7664604c1.0344238-1.1349792,2.6435547-3.2469139,4.7123413-5.5456123 C688.118042,45.5929298,683.0752563,40.8374977,679.0238037,37.4900208L679.0238037,37.4900208z" class="st15"/><linearGradient id="SVGID_16_" x1="2319.738" x2="2396.192" y1="1092.591" y2="1092.591" gradientTransform="matrix(0.8 0 0 -0.8 -1198.6984863 927.8982544)" gradientUnits="userSpaceOnUse"><stop offset="0" style="stop-color:#fff;stop-opacity:.4"/><stop offset=".67" style="stop-color:#fff;stop-opacity:.5"/></linearGradient><path d="M691.4511719,51.0523376c-2.0688477,2.2986984-3.6779175,4.4249954-4.7123413,5.5456123 c2.399292-0.0430984,4.7985229-0.2298698,7.1547241-0.6034088c-0.2299194-0.7039757-0.5172119-1.3648529-0.8476562-2.0257301 C692.5861206,52.9774971,692.0258179,51.9861832,691.4511719,51.0523376L691.4511719,51.0523376z" class="st16"/><linearGradient id="SVGID_17_" x1="2347.143" x2="2396.628" y1="1104.498" y2="1104.498" gradientTransform="matrix(0.8 0 0 -0.8 -1198.6984863 927.8982544)" gradientUnits="userSpaceOnUse"><stop offset="0" style="stop-color:#fff;stop-opacity:.38"/><stop offset=".97" style="stop-color:#fff;stop-opacity:.5"/></linearGradient><path d="M703.4044189,42.3029175c-4.3244629,1.3217545-8.6201172,3.5342522-14.1226807,1.7814903 c-2.7727661-0.847641-6.4075928-3.5773468-10.3153687-6.5369225c4.0945435,3.2900124,9.1373291,8.0454445,12.4703979,13.5048523 C694.5112915,47.61866,698.605835,43.854538,703.4044189,42.3029175z" class="st17"/><linearGradient id="SVGID_18_" x1="2375.5" x2="2375.5" y1="1116.573" y2="1062.216" gradientTransform="matrix(0.8 0 0 -0.8 -1198.6984863 927.8982544)" gradientUnits="userSpaceOnUse"><stop offset="0" style="stop-color:#4faac4"/><stop offset="0" style="stop-color:#fff;stop-opacity:.35"/><stop offset=".964" style="stop-color:#fff;stop-opacity:.38"/><stop offset="1" style="stop-color:#fff;stop-opacity:.26"/></linearGradient><path d="M693.8935547,55.9945412c0.1867676,0.5172081,0.3735352,1.0344162,0.5171509,1.5516205 c0.3304443,1.2642822,0.5603638,2.5429344,0.6608887,3.8646851c0.0430908,0.5603065,0.0430908,1.1349792,0.0430908,1.6952896 c-0.0861816,3.6204491-1.7384033,5.6892815-2.1693726,6.0628166c5.8760376-5.5025063,8.5195312-12.1399994,14.2662964-17.1684036 c0.991333-0.8476448,2.0688477-1.5516205,3.2468872-2.0688286c-3.7497559,1.5947227-7.8586426,4.741066-16.5650024,6.0628204 H693.8935547z" class="st18"/><linearGradient id="SVGID_19_" x1="2311.488" x2="2367.776" y1="1265.775" y2="1265.775" gradientTransform="matrix(0.8 0 0 0.8 -1198.6984863 -952.3873291)" gradientUnits="userSpaceOnUse"><stop offset="0" style="stop-color:#fff;stop-opacity:.6"/><stop offset=".93" style="stop-color:#fff;stop-opacity:.47"/></linearGradient><path d="M661.7548218,44.8889542c4.381897,6.867363,11.2061768,12.3267708,9.8843994,19.955574 c-1.6952515,9.8413086-14.5392456,10.732048-14.5392456,10.732048h0.2873535c1.2642822,0,6.9678955-0.4310074,15.5736694-6.2639542 c7.3845825-5.0284042,11.8670044-10.6314812,13.7921753-12.7003098c-1.7814941,0.0430984-3.4336548-0.0430984-4.9852905-0.1867676 C669.383667,55.1468964,663.8236694,48.0783958,661.7548218,44.8889542L661.7548218,44.8889542z" class="st19"/><linearGradient id="SVGID_20_" x1="2319.748" x2="2396.202" y1="1076.441" y2="1076.441" gradientTransform="matrix(0.8 0 0 -0.8 -1198.6984863 927.8982544)" gradientUnits="userSpaceOnUse"><stop offset="0" style="stop-color:#fff;stop-opacity:.38"/><stop offset=".98" style="stop-color:#fff;stop-opacity:.5"/></linearGradient><path d="M695.0715942,63.1061401c0.0430908-2.3992691-0.3735352-4.855999-1.2211914-7.111599 c-0.3735352,0.0430984-0.7039795,0.0862007-1.0775146,0.1436691c-2.0256958,0.2298698-4.0514526,0.4310036-6.0628052,0.4310036 c-1.982605,2.0688286-6.4075928,7.6719055-13.7921753,12.7003098c-9.7982178,6.7236938-15.8179321,6.3070526-15.8179321,6.3070526 s14.3956299,4.4680939,26.0758667-0.2298737c3.6204834-1.4079514,6.9679565-3.5342484,9.7982178-6.1633835 C693.3763428,68.7379456,695.0285034,66.7265854,695.0715942,63.1061401z" class="st20"/><linearGradient id="SVGID_21_" x1="2379.171" x2="2379.171" y1="1269.107" y2="1241.765" gradientTransform="matrix(0.8 0 0 0.8 -1198.6984863 -952.3873291)" gradientUnits="userSpaceOnUse"><stop offset="0" style="stop-color:#fff;stop-opacity:.3"/><stop offset="1" style="stop-color:#fff;stop-opacity:.35"/></linearGradient><path d="M716.6793823,47.4175224c-0.6608887-0.3304367-1.2642822-0.7470741-1.7814941-1.2211838 c-0.5172119-0.5172043-1.0775146-1.8820572-1.3217773-2.2555962c-0.7039795-1.1780815-1.7383423-2.126297-3.9077759-2.3992653 c-2.1693726-0.2873383-4.1951294,0.1436691-6.2064819,0.7470779c-4.8560181,1.5516205-8.9361572,5.3157387-11.9963379,8.7494202 c0.6034546,0.9482155,1.1350098,1.9251595,1.5947266,2.9164734c0.3304443,0.6608772,0.6033936,1.3648567,0.8476562,2.0257301 c8.7062988-1.3217545,12.8008423-4.4680977,16.5650024-6.0628204c1.882019-0.8045425,3.9077759-1.1780815,5.9335327-1.1349792 h1.0775146c0.7901611,0.0574646,0-0.8907471-0.8045654-1.3648529V47.4175224z" class="st21"/><g><linearGradient id="SVGID_22_" x1="2316.667" x2="2396.945" y1="1107.307" y2="1107.307" gradientTransform="matrix(0.8 0 0 -0.8 -1198.6984863 927.8982544)" gradientUnits="userSpaceOnUse"><stop offset="0" style="stop-color:#fff;stop-opacity:.75"/><stop offset=".32" style="stop-color:#fff;stop-opacity:.57"/><stop offset=".68" style="stop-color:#fff;stop-opacity:.55"/><stop offset=".9" style="stop-color:#fff;stop-opacity:.45"/></linearGradient><path d="M679.0238037,37.4900208c-2.0256958-1.5516243-4.0945435-3.1607132-6.1202393-4.6117668 c-0.4741211-0.3304367-0.9482422-0.6608734-1.3648682-0.991312c-5.4594116-3.7641182-10.5452881-6.120285-13.3612061-2.8159065 c-2.1693726,2.5429363-0.991333,8.4189854,3.4337158,15.5305805l0.1436768,0.2298737 c2.298645,3.6204491,9.0367432,12.1399994,24.998291,11.7664604c1.0344238-1.1349792,2.6435547-3.2469139,4.7123413-5.5456123 C688.118042,45.5929298,683.0752563,40.8374977,679.0238037,37.4900208L679.0238037,37.4900208z" class="st22"/><linearGradient id="SVGID_23_" x1="2319.738" x2="2396.192" y1="1092.591" y2="1092.591" gradientTransform="matrix(0.8 0 0 -0.8 -1198.6984863 927.8982544)" gradientUnits="userSpaceOnUse"><stop offset="0" style="stop-color:#fff;stop-opacity:.4"/><stop offset=".67" style="stop-color:#fff;stop-opacity:.5"/></linearGradient><path d="M691.4511719,51.0523376c-2.0688477,2.2986984-3.6779175,4.4249954-4.7123413,5.5456123 c2.399292-0.0430984,4.7985229-0.2298698,7.1547241-0.6034088c-0.2299194-0.7039757-0.5172119-1.3648529-0.8476562-2.0257301 C692.5861206,52.9774971,692.0258179,51.9861832,691.4511719,51.0523376L691.4511719,51.0523376z" class="st23"/><linearGradient id="SVGID_24_" x1="2347.143" x2="2396.628" y1="1104.498" y2="1104.498" gradientTransform="matrix(0.8 0 0 -0.8 -1198.6984863 927.8982544)" gradientUnits="userSpaceOnUse"><stop offset="0" style="stop-color:#fff;stop-opacity:.38"/><stop offset=".97" style="stop-color:#fff;stop-opacity:.5"/></linearGradient><path d="M703.4044189,42.3029175c-4.3244629,1.3217545-8.6201172,3.5342522-14.1226807,1.7814903 c-2.7727661-0.847641-6.4075928-3.5773468-10.3153687-6.5369225c4.0945435,3.2900124,9.1373291,8.0454445,12.4703979,13.5048523 C694.5112915,47.61866,698.605835,43.854538,703.4044189,42.3029175z" class="st24"/><linearGradient id="SVGID_25_" x1="2375.5" x2="2375.5" y1="1116.573" y2="1062.216" gradientTransform="matrix(0.8 0 0 -0.8 -1198.6984863 927.8982544)" gradientUnits="userSpaceOnUse"><stop offset="0" style="stop-color:#4faac4"/><stop offset="0" style="stop-color:#fff;stop-opacity:.35"/><stop offset=".964" style="stop-color:#fff;stop-opacity:.38"/><stop offset="1" style="stop-color:#fff;stop-opacity:.26"/></linearGradient><path d="M693.8935547,55.9945412c0.1867676,0.5172081,0.3735352,1.0344162,0.5171509,1.5516205 c0.3304443,1.2642822,0.5603638,2.5429344,0.6608887,3.8646851c0.0430908,0.5603065,0.0430908,1.1349792,0.0430908,1.6952896 c-0.0861816,3.6204491-1.7384033,5.6892815-2.1693726,6.0628166c5.8760376-5.5025063,8.5195312-12.1399994,14.2662964-17.1684036 c0.991333-0.8476448,2.0688477-1.5516205,3.2468872-2.0688286c-3.7497559,1.5947227-7.8586426,4.741066-16.5650024,6.0628204 H693.8935547z" class="st25"/><linearGradient id="SVGID_26_" x1="2311.488" x2="2367.776" y1="1265.775" y2="1265.775" gradientTransform="matrix(0.8 0 0 0.8 -1198.6984863 -952.3873291)" gradientUnits="userSpaceOnUse"><stop offset="0" style="stop-color:#fff;stop-opacity:.6"/><stop offset=".93" style="stop-color:#fff;stop-opacity:.47"/></linearGradient><path d="M661.7548218,44.8889542c4.381897,6.867363,11.2061768,12.3267708,9.8843994,19.955574 c-1.6952515,9.8413086-14.5392456,10.732048-14.5392456,10.732048h0.2873535 c1.2642822,0,6.9678955-0.4310074,15.5736694-6.2639542c7.3845825-5.0284042,11.8670044-10.6314812,13.7921753-12.7003098 c-1.7814941,0.0430984-3.4336548-0.0430984-4.9852905-0.1867676 C669.383667,55.1468964,663.8236694,48.0783958,661.7548218,44.8889542L661.7548218,44.8889542z" class="st26"/><linearGradient id="SVGID_27_" x1="2319.748" x2="2396.202" y1="1076.441" y2="1076.441" gradientTransform="matrix(0.8 0 0 -0.8 -1198.6984863 927.8982544)" gradientUnits="userSpaceOnUse"><stop offset="0" style="stop-color:#fff;stop-opacity:.38"/><stop offset=".98" style="stop-color:#fff;stop-opacity:.5"/></linearGradient><path d="M695.0715942,63.1061401c0.0430908-2.3992691-0.3735352-4.855999-1.2211914-7.111599 c-0.3735352,0.0430984-0.7039795,0.0862007-1.0775146,0.1436691c-2.0256958,0.2298698-4.0514526,0.4310036-6.0628052,0.4310036 c-1.982605,2.0688286-6.4075928,7.6719055-13.7921753,12.7003098c-9.7982178,6.7236938-15.8179321,6.3070526-15.8179321,6.3070526 s14.3956299,4.4680939,26.0758667-0.2298737c3.6204834-1.4079514,6.9679565-3.5342484,9.7982178-6.1633835 C693.3763428,68.7379456,695.0285034,66.7265854,695.0715942,63.1061401z" class="st27"/><linearGradient id="SVGID_28_" x1="2379.171" x2="2379.171" y1="1269.107" y2="1241.765" gradientTransform="matrix(0.8 0 0 0.8 -1198.6984863 -952.3873291)" gradientUnits="userSpaceOnUse"><stop offset="0" style="stop-color:#fff;stop-opacity:.3"/><stop offset="1" style="stop-color:#fff;stop-opacity:.35"/></linearGradient><path d="M716.6793823,47.4175224c-0.6608887-0.3304367-1.2642822-0.7470741-1.7814941-1.2211838 c-0.5172119-0.5172043-1.0775146-1.8820572-1.3217773-2.2555962c-0.7039795-1.1780815-1.7383423-2.126297-3.9077759-2.3992653 c-2.1693726-0.2873383-4.1951294,0.1436691-6.2064819,0.7470779c-4.8560181,1.5516205-8.9361572,5.3157387-11.9963379,8.7494202 c0.6034546,0.9482155,1.1350098,1.9251595,1.5947266,2.9164734c0.3304443,0.6608772,0.6033936,1.3648567,0.8476562,2.0257301 c8.7062988-1.3217545,12.8008423-4.4680977,16.5650024-6.0628204c1.882019-0.8045425,3.9077759-1.1780815,5.9335327-1.1349792 h1.0775146c0.7901611,0.0574646,0-0.8907471-0.8045654-1.3648529V47.4175224z" class="st28"/></g></g></svg>